<?xml version="1.0" encoding="UTF-8" standalone="no"?>
<!-- Created with Inkscape (http://www.inkscape.org/) -->

<svg
   width="70.753998mm"
   height="22.606789mm"
   viewBox="0 0 250.70306 80.102793"
   id="svg2"
   version="1.1"
   inkscape:version="1.4.3 (0d15f75, 2025-12-25)"
   inkscape:export-filename="C:\Users\Damian\OneDrive\Silky Stuff\Images\logo1.png"
   inkscape:export-xdpi="37.432453"
   inkscape:export-ydpi="37.432453"
   sodipodi:docname="jamovi-logo.svg"
   xmlns:inkscape="http://www.inkscape.org/namespaces/inkscape"
   xmlns:sodipodi="http://sodipodi.sourceforge.net/DTD/sodipodi-0.dtd"
   xmlns="http://www.w3.org/2000/svg"
   xmlns:svg="http://www.w3.org/2000/svg"
   xmlns:rdf="http://www.w3.org/1999/02/22-rdf-syntax-ns#"
   xmlns:cc="http://creativecommons.org/ns#"
   xmlns:dc="http://purl.org/dc/elements/1.1/">
  <defs
     id="defs4" />
  <sodipodi:namedview
     id="base"
     pagecolor="#ffffff"
     bordercolor="#666666"
     borderopacity="1.0"
     inkscape:pageopacity="0.0"
     inkscape:pageshadow="2"
     inkscape:zoom="1.1273793"
     inkscape:cx="97.127916"
     inkscape:cy="127.72986"
     inkscape:document-units="px"
     inkscape:current-layer="layer1"
     showgrid="false"
     inkscape:window-width="1512"
     inkscape:window-height="949"
     inkscape:window-x="0"
     inkscape:window-y="1063"
     inkscape:window-maximized="0"
     fit-margin-top="2"
     fit-margin-left="2"
     fit-margin-right="2"
     fit-margin-bottom="1"
     inkscape:showpageshadow="2"
     inkscape:pagecheckerboard="0"
     inkscape:deskcolor="#d1d1d1" />
  <metadata
     id="metadata7">
    <rdf:RDF>
      <cc:Work
         rdf:about="">
        <dc:format>image/svg+xml</dc:format>
        <dc:type
           rdf:resource="http://purl.org/dc/dcmitype/StillImage" />
      </cc:Work>
    </rdf:RDF>
  </metadata>
  <g
     inkscape:label="Layer 1"
     inkscape:groupmode="layer"
     id="layer1"
     transform="translate(-86.147084,-658.40883)">
    <path
       style="fill:#3e6da9;fill-opacity:1;stroke:none;stroke-width:0;stroke-miterlimit:4;stroke-dasharray:none;stroke-opacity:1"
       d="m 93.233668,730.05402 v -4.91391 l 1.101393,-0.003 c 1.736115,-0.005 4.374969,-1.43306 5.945059,-3.21677 2.46154,-2.79638 2.44248,-2.61079 2.44248,-23.78312 v -18.74691 h 4.93137 4.93138 l -0.11438,19.90981 c -0.12645,22.00887 -0.0483,21.17523 -2.40808,25.67094 -1.50381,2.86488 -5.24154,6.50067 -8.10459,7.88354 -2.420295,1.16902 -5.787208,2.10036 -7.623239,2.10871 l -1.101393,0.005 v -4.91391 z m 38.294592,-13.92124 c -3.2742,-0.8616 -6.10276,-2.51611 -8.64344,-5.05579 -3.92178,-3.92023 -5.70076,-8.15065 -5.70076,-13.55642 0,-5.40578 1.77898,-9.6362 5.70076,-13.55643 3.69455,-3.69311 8.20497,-5.59995 13.20494,-5.5826 3.01563,0.0105 4.91035,0.44469 7.43851,1.7047 1.10152,0.54898 2.05465,0.99815 2.11807,0.99815 0.0635,0 0.11532,-0.38126 0.11532,-0.84723 v -0.84723 h 4.9139 4.91391 v 18.13064 18.13061 h -4.91391 -4.9139 v -0.85293 -0.85292 l -1.77918,0.90393 c -0.97854,0.49717 -2.54167,1.10793 -3.47362,1.35725 -2.1921,0.58644 -6.60967,0.55017 -8.9806,-0.0738 z m 8.9806,-9.75121 c 1.87242,-0.87378 4.04365,-3.06477 4.77738,-4.82087 0.62716,-1.50097 0.62716,-6.57931 0,-8.08028 -0.66915,-1.6015 -2.78803,-3.84588 -4.41538,-4.67687 -1.71647,-0.87651 -5.40355,-1.18348 -7.42321,-0.618 -0.81291,0.22759 -2.22274,0.97668 -3.13296,1.66463 -4.96302,3.75105 -4.96808,11.5859 -0.01,15.3333 2.07417,1.56765 3.17403,1.91846 6.13736,1.95755 1.82198,0.024 2.76529,-0.15214 4.0667,-0.75946 z m 108.31736,9.77194 c -12.35292,-3.46006 -18.07263,-17.67201 -11.48606,-28.53981 1.80979,-2.98614 4.80972,-5.72561 7.88577,-7.20113 3.14143,-1.50687 5.39386,-2.04132 8.57366,-2.0343 10.59537,0.0234 19.0459,8.50858 19.0459,19.12409 0,8.21267 -4.71847,15.06625 -12.41104,18.02709 -2.94281,1.13269 -8.68942,1.44163 -11.60823,0.62406 z m 8.35648,-9.4986 c 5.79225,-2.409 7.94646,-8.55203 4.93762,-14.08027 -1.63574,-3.00537 -4.66262,-4.69515 -8.42213,-4.70169 -5.56228,-0.01 -9.6379,4.06592 -9.64762,9.64762 -0.007,3.96573 2.15335,7.32973 5.75039,8.95459 1.88529,0.85164 5.55159,0.94091 7.38174,0.17975 z m 20.40725,-8.62601 v -18.63897 h 4.91391 4.9139 v 12.90068 12.90065 l 0.76252,-0.23647 c 3.00696,-0.93257 7.59364,-4.08677 10.4866,-7.21152 4.36735,-4.71726 6.62991,-9.73005 7.5574,-16.74361 l 0.21288,-1.60973 h 4.86088 4.86089 l -0.14893,1.44028 c -0.8641,8.35532 -2.84932,13.81607 -7.28434,20.03673 -4.32197,6.06215 -10.62508,10.80121 -18.1162,13.62085 -2.85777,1.07567 -8.40731,2.18007 -10.95467,2.18007 h -2.06484 z m -114.88378,-0.32959 v -18.30938 h 4.74446 4.74446 v 0.99089 0.99088 l 2.05437,-1.37186 c 2.44133,-1.63025 5.47588,-2.64515 7.88836,-2.63824 4.16345,0.0119 9.14949,1.96054 12.23706,4.78241 l 1.88142,1.71951 1.88141,-1.71951 c 3.12702,-2.85792 8.09366,-4.77852 12.35198,-4.77652 8.73678,0.004 16.62028,6.17523 18.80109,14.7173 0.40931,1.60328 0.51564,4.27843 0.51564,12.97186 v 10.95203 l -4.82917,-0.0941 -4.82919,-0.0941 -0.16945,-11.01394 c -0.16136,-10.48872 -0.20459,-11.07959 -0.90652,-12.39086 -2.49991,-4.67012 -7.97645,-6.49621 -12.58138,-4.19509 -2.29299,1.14582 -3.54346,2.42698 -4.6116,4.7248 -0.66393,1.42823 -0.71588,2.20831 -0.81891,12.29391 l -0.11002,10.76892 -4.8039,-0.0939 -4.8039,-0.0939 -0.16944,-11.01394 c -0.18817,-12.23105 -0.21705,-12.39451 -2.61395,-14.79142 -1.99872,-1.99872 -3.64615,-2.64969 -6.70553,-2.64969 -3.10035,0 -4.72838,0.65795 -6.73146,2.72045 -2.39491,2.46597 -2.39992,2.49446 -2.58801,14.72066 l -0.16946,11.01394 -4.82919,0.0941 -4.82917,0.0941 v -18.30937 z m 158.26174,-0.17874 v -18.13064 h 4.74444 4.74446 v 18.13064 18.13061 h -4.74446 -4.74444 z M 102.7226,670.2399 v -4.74446 h 4.74446 4.74446 v 4.74446 4.74446 h -4.74446 -4.74446 z m 218.24531,0 v -4.74446 h 4.74444 4.74446 v 4.74446 4.74446 h -4.74446 -4.74444 z"
       id="path4694"
       inkscape:connector-curvature="0" />
  </g>
</svg>
